<svg width="128" height="128" viewBox="0 0 128 128" xmlns="http://www.w3.org/2000/svg">
  <defs>
    <!-- Background gradient -->
    <linearGradient id="bgGradient" x1="0%" y1="0%" x2="100%" y2="100%">
      <stop offset="0%" style="stop-color:#0A0A0A;stop-opacity:1" />
      <stop offset="100%" style="stop-color:#212121;stop-opacity:1" />
    </linearGradient>
    
    <!-- Main accent gradient -->
    <linearGradient id="accentGradient" x1="0%" y1="0%" x2="100%" y2="100%">
      <stop offset="0%" style="stop-color:#80CBC4;stop-opacity:1" />
      <stop offset="50%" style="stop-color:#6ebad7;stop-opacity:1" />
      <stop offset="100%" style="stop-color:#6a90d0;stop-opacity:1" />
    </linearGradient>
    
    <!-- Glow effect -->
    <filter id="glow">
      <feGaussianBlur stdDeviation="3" result="coloredBlur"/>
      <feMerge> 
        <feMergeNode in="coloredBlur"/>
        <feMergeNode in="SourceGraphic"/>
      </feMerge>
    </filter>
  </defs>
  
  <!-- Main background circle -->
  <circle cx="64" cy="64" r="58" fill="url(#bgGradient)" stroke="#404040" stroke-width="3"/>
  
  <!-- Stylized "N" for Nishuuu -->
  <g filter="url(#glow)">
    <path d="M 28 38 L 38 38 L 38 58 L 58 38 L 68 38 L 68 90 L 58 90 L 58 70 L 38 90 L 28 90 Z" 
          fill="url(#accentGradient)" stroke="none"/>
  </g>
  
  <!-- Theme color palette dots -->
  <g opacity="0.9">
    <!-- Teal -->
    <circle cx="80" cy="35" r="5" fill="#80CBC4"/>
    <!-- Blue -->
    <circle cx="92" cy="45" r="5" fill="#6a90d0"/>
    <!-- Purple -->
    <circle cx="98" cy="60" r="5" fill="#a178c4"/>
    <!-- Green -->
    <circle cx="92" cy="75" r="5" fill="#a3c679"/>
    <!-- Orange -->
    <circle cx="80" cy="85" r="5" fill="#FF7042"/>
  </g>
  
  <!-- Connecting lines between dots (subtle) -->
  <g stroke="#80CBC4" stroke-width="1" opacity="0.3" fill="none">
    <path d="M 80 35 Q 86 40 92 45"/>
    <path d="M 92 45 Q 95 52 98 60"/>
    <path d="M 98 60 Q 95 67 92 75"/>
    <path d="M 92 75 Q 86 80 80 85"/>
  </g>
  
  <!-- Subtle highlight on the N -->
  <path d="M 32 42 L 34 42 L 34 54 L 32 54 Z" fill="#ffffff" opacity="0.2"/>
  
  <!-- Border ring -->
  <circle cx="64" cy="64" r="62" fill="none" stroke="#80CBC4" stroke-width="1" opacity="0.4"/>
</svg>
